<?xml version="1.0" encoding="utf-8"?>
<!-- Generator: Adobe Illustrator 12.0.0, SVG Export Plug-In . SVG Version: 6.00 Build 51448)  -->
<!DOCTYPE svg PUBLIC "-//W3C//DTD SVG 1.1//EN" "http://www.w3.org/Graphics/SVG/1.1/DTD/svg11.dtd" [
	<!ENTITY ns_svg "http://www.w3.org/2000/svg">
	<!ENTITY ns_xlink "http://www.w3.org/1999/xlink">
]>
<svg  version="1.1" id="Layer_1" xmlns="&ns_svg;" xmlns:xlink="&ns_xlink;" width="748.344" height="197.65"
	 viewBox="0 0 748.344 197.65" overflow="visible" enable-background="new 0 0 748.344 197.65" xml:space="preserve">
<g>
	<path fill-rule="evenodd" clip-rule="evenodd" fill="#004685" d="M67.5,138.885l-0.486,0.492
		c-6.311,6.313-13.596,9.711-21.365,9.711c-16.027,0-27.682-11.656-27.682-28.172c0-16.992,11.654-28.648,27.682-28.648
		c7.77,0,15.055,3.4,21.365,9.713l0.486,0.486l10.199-12.143V89.84C68.957,79.643,58.76,74.785,46.133,74.785
		c-12.625,0-24.281,4.371-32.537,12.141C4.369,95.182,0,106.836,0,120.916c0,13.602,4.369,25.258,13.596,33.508
		c8.256,7.773,19.912,12.141,32.537,12.141c12.627,0,22.824-4.852,31.566-15.055v-0.484L67.5,138.885L67.5,138.885z"/>
	<polygon fill-rule="evenodd" clip-rule="evenodd" fill="#004685" points="88.869,164.627 106.836,164.627 106.836,76.242 
		88.869,76.242 88.869,164.627 	"/>
	<path fill-rule="evenodd" clip-rule="evenodd" fill="#004685" d="M174.824,145.689c-4.371,2.914-9.227,4.367-13.111,4.367
		c-5.828,0-8.742-2.914-8.742-10.195V93.238h18.455V76.242h-18.455v-27.68l-17.482,9.711v17.969h-15.541v16.996h15.541v50.021
		c0,13.594,7.77,22.82,19.91,22.82c8.256,0.484,13.113-1.938,16.027-3.883h0.484v-0.484l4.369-17L174.824,145.689L174.824,145.689z"
		/>
	<polygon fill-rule="evenodd" clip-rule="evenodd" fill="#004685" points="187.936,164.627 206.389,164.627 206.389,76.242 
		187.936,76.242 187.936,164.627 	"/>
	<path fill-rule="evenodd" clip-rule="evenodd" fill="#ED1B2D" d="M659.961,0h-4.371l-0.969,7.283
		c-72.359,1.943-86.926,58.275-86.926,58.275s13.109-8.256,32.535-8.256c19.91,0,27.68,7.77,27.68,7.77s12.625-10.197,30.109-10.197
		s30.109,10.197,30.109,10.197s7.77-7.77,27.195-7.77c19.91,0,33.02,8.256,33.02,8.256s-15.051-56.332-87.41-58.275L659.961,0
		L659.961,0z"/>
	<path fill-rule="evenodd" clip-rule="evenodd" fill="#ED1B2D" d="M646.852,167.057c11.168,0,16.996-6.805,16.996-19.43
		c0-5.336,0-84.982,0-84.982c-2.43-0.971-6.313-0.971-8.742,0c0,0,0,78.67,0,84.982c0,8.258-3.398,11.172-8.254,11.172
		c-5.344,0-8.742-2.914-8.742-11.172l0,0c0-2.43-1.941-4.367-3.887-4.367c-2.426,0-4.371,1.938-4.371,4.367
		C629.852,160.252,635.68,167.057,646.852,167.057L646.852,167.057z"/>
	<path fill-rule="evenodd" clip-rule="evenodd" fill="#004685" d="M278.746,139.377c-4.855,5.82-12.625,11.648-20.881,11.648
		c-13.598,0-20.883-9.711-20.883-32.531c0-18.457,6.799-28.17,19.912-28.17c9.227,0,17.482,6.314,21.852,11.656V139.377
		L278.746,139.377z M296.23,156.854V76.242h-17.969v8.256c-4.857-5.342-13.598-10.197-22.824-10.197
		c-18.939,0-36.422,14.568-36.422,44.678c0,33.992,15.541,48.078,35.451,48.078c9.713,0,16.996-4.375,23.795-10.203v1.461
		c0,17.969-5.828,24.766-31.566,26.219l6.314,12.633C286.031,196.189,296.23,183.564,296.23,156.854L296.23,156.854z"/>
	<path fill-rule="evenodd" clip-rule="evenodd" fill="#004685" d="M361.303,94.695c-3.885-1.941-8.256-3.398-14.082-3.398
		c-11.654,0-17.969,7.77-17.969,22.822v50.508h-17.969V76.242h17.969v8.256c3.885-5.828,11.654-10.197,20.881-10.197
		c7.285,0,12.143,1.457,16.027,3.885L361.303,94.695L361.303,94.695z"/>
	<path fill-rule="evenodd" clip-rule="evenodd" fill="#004685" d="M427.832,120.916c0,16.031-9.227,29.625-22.824,29.625
		s-23.309-10.68-23.309-30.109c0-17.965,8.742-29.621,22.34-29.621C418.605,90.811,427.832,102.467,427.832,120.916L427.832,120.916
		z M445.801,120.432c0-28.164-17.48-46.131-40.793-46.131c-23.309,0-41.275,16.996-41.275,46.615
		c0,27.688,17.482,46.141,40.791,46.141C428.32,167.057,445.801,149.572,445.801,120.432L445.801,120.432z"/>
	<path fill-rule="evenodd" clip-rule="evenodd" fill="#004685" d="M510.391,164.627v-7.773
		c-4.859,6.313-14.082,10.203-23.313,10.203c-21.852,0-33.02-13.602-33.02-39.82V76.242h17.969v50.502
		c0,17.969,7.281,24.281,18.938,24.281c12.141,0,19.426-8.25,19.426-22.82V76.242h17.969v88.385H510.391L510.391,164.627z"/>
	<path fill-rule="evenodd" clip-rule="evenodd" fill="#004685" d="M602.66,122.377c0,18.938-7.285,28.648-20.398,28.648
		c-9.227,0-17.48-6.313-21.852-11.648v-37.883c4.855-5.342,12.625-11.17,21.367-11.17C594.887,90.324,602.66,100.037,602.66,122.377
		L602.66,122.377z M620.625,121.893c0-33.51-15.539-47.592-35.449-47.592c-10.199,0-17.969,4.369-24.766,10.197v-8.256h-17.484
		V197.65l17.484-9.227v-31.57c5.34,5.344,14.082,10.203,23.793,10.203C603.145,167.057,620.625,152.486,620.625,121.893
		L620.625,121.893z"/>
</g>
</svg>
